<svg width="24" height="24" viewBox="0 0 24 24" xmlns="http://www.w3.org/2000/svg">
  <!-- 后面的文件夹 (最淡) -->
  <path d="M3 10V18C3 19.1 3.9 20 5 20H15C16.1 20 17 19.1 17 18V12C17 10.9 16.1 10 15 10H9L7 8H5C3.9 8 3 8.9 3 10Z" 
        stroke="currentColor" 
        stroke-width="1" 
        fill="none" 
        opacity="0.3"/>
  
  <!-- 中间的文件夹 (中等) -->
  <path d="M5 7V15C5 16.1 5.9 17 7 17H17C18.1 17 19 16.1 19 15V9C19 7.9 18.1 7 17 7H11L9 5H7C5.9 5 5 5.9 5 7Z" 
        stroke="currentColor" 
        stroke-width="1.2" 
        fill="none" 
        opacity="0.6"/>
  
  <!-- 前面的文件夹 (最突出) -->
  <path d="M7 4V12C7 13.1 7.9 14 9 14H19C20.1 14 21 13.1 21 12V6C21 4.9 20.1 4 19 4H13L11 2H9C7.9 2 7 2.9 7 4Z" 
        stroke="currentColor" 
        stroke-width="1.5" 
        fill="none"/>
</svg>
